<svg xmlns="http://www.w3.org/2000/svg" width="1100" height="620" viewBox="0 0 1100 620">
<rect width="100%" height="100%" fill="#0f172a"/>
<text x="550.0" y="32" text-anchor="middle" fill="#f8fafc" font-family="system-ui" font-size="22" font-weight="700">Speed-quality Pareto: FPS vs LPIPS</text>
<text x="550.0" y="58" text-anchor="middle" fill="#94a3b8" font-family="system-ui" font-size="13">Aggregate of 5 required cases · same Tier A cohort · labels report exact aggregate values</text>
<line x1="90" y1="535" x2="750" y2="535" stroke="#94a3b8"/>
<line x1="90" y1="90" x2="90" y2="535" stroke="#94a3b8"/>
<text x="420.0" y="586" text-anchor="middle" fill="#cbd5e1" font-family="system-ui">FPS (higher is better →)</text>
<text transform="translate(24 312.5) rotate(-90)" text-anchor="middle" fill="#cbd5e1" font-family="system-ui">LPIPS (lower is better)</text>
<text x="792" y="98" fill="#f8fafc" font-family="system-ui" font-size="15" font-weight="700">Chart data</text>
<line x1="90.00" y1="90" x2="90.00" y2="535" stroke="#1e293b"/>
<text x="90.00" y="559" text-anchor="middle" fill="#94a3b8" font-family="system-ui" font-size="12">77</text>
<line x1="90" y1="535.00" x2="750" y2="535.00" stroke="#1e293b"/>
<text x="80" y="539.00" text-anchor="end" fill="#94a3b8" font-family="system-ui" font-size="12">0.2623</text>
<line x1="255.00" y1="90" x2="255.00" y2="535" stroke="#1e293b"/>
<text x="255.00" y="559" text-anchor="middle" fill="#94a3b8" font-family="system-ui" font-size="12">243</text>
<line x1="90" y1="423.75" x2="750" y2="423.75" stroke="#1e293b"/>
<text x="80" y="427.75" text-anchor="end" fill="#94a3b8" font-family="system-ui" font-size="12">0.2633</text>
<line x1="420.00" y1="90" x2="420.00" y2="535" stroke="#1e293b"/>
<text x="420.00" y="559" text-anchor="middle" fill="#94a3b8" font-family="system-ui" font-size="12">410</text>
<line x1="90" y1="312.50" x2="750" y2="312.50" stroke="#1e293b"/>
<text x="80" y="316.50" text-anchor="end" fill="#94a3b8" font-family="system-ui" font-size="12">0.2643</text>
<line x1="585.00" y1="90" x2="585.00" y2="535" stroke="#1e293b"/>
<text x="585.00" y="559" text-anchor="middle" fill="#94a3b8" font-family="system-ui" font-size="12">576</text>
<line x1="90" y1="201.25" x2="750" y2="201.25" stroke="#1e293b"/>
<text x="80" y="205.25" text-anchor="end" fill="#94a3b8" font-family="system-ui" font-size="12">0.2653</text>
<line x1="750.00" y1="90" x2="750.00" y2="535" stroke="#1e293b"/>
<text x="750.00" y="559" text-anchor="middle" fill="#94a3b8" font-family="system-ui" font-size="12">743</text>
<line x1="90" y1="90.00" x2="750" y2="90.00" stroke="#1e293b"/>
<text x="80" y="94.00" text-anchor="end" fill="#94a3b8" font-family="system-ui" font-size="12">0.2663</text>
<circle cx="253.19" cy="200.39" r="10" fill="#8b5cf6" stroke="#f8fafc" stroke-width="1.5"/>
<text x="253.19" y="204.39" text-anchor="middle" fill="#0f172a" font-family="system-ui" font-size="11" font-weight="700">1</text>
<circle cx="804" cy="128" r="10" fill="#8b5cf6"/>
<text x="804" y="132" text-anchor="middle" fill="#0f172a" font-family="system-ui" font-size="10" font-weight="700">1</text>
<text x="824" y="123" fill="#e2e8f0" font-family="system-ui" font-size="14" font-weight="700">gsplat</text>
<text x="824" y="144" fill="#94a3b8" font-family="system-ui" font-size="12">241.60 FPS · 0.2653</text>
<circle cx="704.48" cy="244.05" r="12" fill="#22c55e" stroke="#f8fafc" stroke-width="1.5"/>
<text x="704.48" y="248.05" text-anchor="middle" fill="#0f172a" font-family="system-ui" font-size="11" font-weight="700">2</text>
<circle cx="804" cy="190" r="10" fill="#22c55e"/>
<text x="804" y="194" text-anchor="middle" fill="#0f172a" font-family="system-ui" font-size="10" font-weight="700">2</text>
<text x="824" y="185" fill="#e2e8f0" font-family="system-ui" font-size="14" font-weight="700">gsplat HiGS</text>
<text x="824" y="206" fill="#94a3b8" font-family="system-ui" font-size="12">696.91 FPS · 0.2649 · Pareto</text>
<circle cx="135.52" cy="373.33" r="10" fill="#8b5cf6" stroke="#f8fafc" stroke-width="1.5"/>
<text x="135.52" y="377.33" text-anchor="middle" fill="#0f172a" font-family="system-ui" font-size="11" font-weight="700">3</text>
<circle cx="804" cy="252" r="10" fill="#8b5cf6"/>
<text x="804" y="256" text-anchor="middle" fill="#0f172a" font-family="system-ui" font-size="10" font-weight="700">3</text>
<text x="824" y="247" fill="#e2e8f0" font-family="system-ui" font-size="14" font-weight="700">Original 3DGS</text>
<text x="824" y="268" fill="#94a3b8" font-family="system-ui" font-size="12">122.88 FPS · 0.2637</text>
<circle cx="304.16" cy="373.61" r="12" fill="#22c55e" stroke="#f8fafc" stroke-width="1.5"/>
<text x="304.16" y="377.61" text-anchor="middle" fill="#0f172a" font-family="system-ui" font-size="11" font-weight="700">4</text>
<circle cx="804" cy="314" r="10" fill="#22c55e"/>
<text x="804" y="318" text-anchor="middle" fill="#0f172a" font-family="system-ui" font-size="10" font-weight="700">4</text>
<text x="824" y="309" fill="#e2e8f0" font-family="system-ui" font-size="14" font-weight="700">Speedy-Splat</text>
<text x="824" y="330" fill="#94a3b8" font-family="system-ui" font-size="12">293.03 FPS · 0.2637 · Pareto</text>
<circle cx="263.12" cy="424.61" r="12" fill="#22c55e" stroke="#f8fafc" stroke-width="1.5"/>
<text x="263.12" y="428.61" text-anchor="middle" fill="#0f172a" font-family="system-ui" font-size="11" font-weight="700">5</text>
<circle cx="804" cy="376" r="10" fill="#22c55e"/>
<text x="804" y="380" text-anchor="middle" fill="#0f172a" font-family="system-ui" font-size="10" font-weight="700">5</text>
<text x="824" y="371" fill="#e2e8f0" font-family="system-ui" font-size="14" font-weight="700">TC-GS</text>
<text x="824" y="392" fill="#94a3b8" font-family="system-ui" font-size="12">251.62 FPS · 0.2633 · Pareto</text>
<text x="90" y="610" fill="#64748b" font-family="system-ui" font-size="11">Source: generated ranking.json · overall rows only · green = 2D Pareto frontier</text>
</svg>
