<svg xmlns="http://www.w3.org/2000/svg" width="1100" height="500" viewBox="0 0 1100 500">
<rect width="100%" height="100%" rx="16" fill="#0f172a"/>
<text x="40" y="42" fill="#f8fafc" font-family="system-ui" font-size="24" font-weight="700">Aggregate PSNR</text>
<text x="40" y="68" fill="#94a3b8" font-family="system-ui" font-size="13">higher is better · aggregate of 5 required cases · same Tier A cohort</text>
<text x="40" y="98" fill="#64748b" font-family="system-ui" font-size="11">Rank</text>
<text x="92" y="98" fill="#64748b" font-family="system-ui" font-size="11">Renderer</text>
<text x="930" y="98" fill="#64748b" font-family="system-ui" font-size="11">Exact value</text>
<circle cx="54" cy="132" r="15" fill="#ec4899"/>
<text x="54" y="137" text-anchor="middle" fill="#0f172a" font-family="system-ui" font-size="13" font-weight="700">1</text>
<text x="92" y="137" fill="#e2e8f0" font-family="system-ui" font-size="16" font-weight="700">TC-GS</text>
<rect x="270" y="118" width="620" height="28" rx="8" fill="#1e293b"/>
<rect x="270" y="118" width="620.00" height="28" rx="8" fill="#ec4899" opacity=".88"/>
<text x="930" y="137" fill="#f8fafc" font-family="system-ui" font-size="15" font-weight="700">26.130 dB</text>
<circle cx="54" cy="194" r="15" fill="#f59e0b"/>
<text x="54" y="199" text-anchor="middle" fill="#0f172a" font-family="system-ui" font-size="13" font-weight="700">2</text>
<text x="92" y="199" fill="#e2e8f0" font-family="system-ui" font-size="16" font-weight="700">Speedy-Splat</text>
<rect x="270" y="180" width="620" height="28" rx="8" fill="#1e293b"/>
<rect x="270" y="180" width="604.39" height="28" rx="8" fill="#f59e0b" opacity=".88"/>
<text x="930" y="199" fill="#f8fafc" font-family="system-ui" font-size="15" font-weight="700">26.121 dB</text>
<circle cx="54" cy="256" r="15" fill="#8b5cf6"/>
<text x="54" y="261" text-anchor="middle" fill="#0f172a" font-family="system-ui" font-size="13" font-weight="700">3</text>
<text x="92" y="261" fill="#e2e8f0" font-family="system-ui" font-size="16" font-weight="700">Original 3DGS</text>
<rect x="270" y="242" width="620" height="28" rx="8" fill="#1e293b"/>
<rect x="270" y="242" width="602.78" height="28" rx="8" fill="#8b5cf6" opacity=".88"/>
<text x="930" y="261" fill="#f8fafc" font-family="system-ui" font-size="15" font-weight="700">26.120 dB</text>
<circle cx="54" cy="318" r="15" fill="#22c55e"/>
<text x="54" y="323" text-anchor="middle" fill="#0f172a" font-family="system-ui" font-size="13" font-weight="700">4</text>
<text x="92" y="323" fill="#e2e8f0" font-family="system-ui" font-size="16" font-weight="700">gsplat HiGS</text>
<rect x="270" y="304" width="620" height="28" rx="8" fill="#1e293b"/>
<rect x="270" y="304" width="112.17" height="28" rx="8" fill="#22c55e" opacity=".88"/>
<text x="930" y="323" fill="#f8fafc" font-family="system-ui" font-size="15" font-weight="700">25.834 dB</text>
<circle cx="54" cy="380" r="15" fill="#3b82f6"/>
<text x="54" y="385" text-anchor="middle" fill="#0f172a" font-family="system-ui" font-size="13" font-weight="700">5</text>
<text x="92" y="385" fill="#e2e8f0" font-family="system-ui" font-size="16" font-weight="700">gsplat</text>
<rect x="270" y="366" width="620" height="28" rx="8" fill="#1e293b"/>
<rect x="270" y="366" width="111.60" height="28" rx="8" fill="#3b82f6" opacity=".88"/>
<text x="930" y="385" fill="#f8fafc" font-family="system-ui" font-size="15" font-weight="700">25.834 dB</text>
<text x="40" y="462" fill="#94a3b8" font-family="system-ui" font-size="12">Bar lengths are normalized within this cohort; use the exact values for numeric comparison.</text>
<text x="40" y="484" fill="#64748b" font-family="system-ui" font-size="11">Source: generated ranking.json · overall rows only · renderer colors remain consistent across charts</text>
</svg>
