<svg xmlns="http://www.w3.org/2000/svg" width="1100" height="500" viewBox="0 0 1100 500">
<rect width="100%" height="100%" rx="16" fill="#0f172a"/>
<text x="40" y="42" fill="#f8fafc" font-family="system-ui" font-size="24" font-weight="700">Aggregate LPIPS</text>
<text x="40" y="68" fill="#94a3b8" font-family="system-ui" font-size="13">lower is better · aggregate of 5 required cases · same Tier A cohort</text>
<text x="40" y="98" fill="#64748b" font-family="system-ui" font-size="11">Rank</text>
<text x="92" y="98" fill="#64748b" font-family="system-ui" font-size="11">Renderer</text>
<text x="930" y="98" fill="#64748b" font-family="system-ui" font-size="11">Exact value</text>
<circle cx="54" cy="132" r="15" fill="#ec4899"/>
<text x="54" y="137" text-anchor="middle" fill="#0f172a" font-family="system-ui" font-size="13" font-weight="700">1</text>
<text x="92" y="137" fill="#e2e8f0" font-family="system-ui" font-size="16" font-weight="700">TC-GS</text>
<rect x="270" y="118" width="620" height="28" rx="8" fill="#1e293b"/>
<rect x="270" y="118" width="620.00" height="28" rx="8" fill="#ec4899" opacity=".88"/>
<text x="930" y="137" fill="#f8fafc" font-family="system-ui" font-size="15" font-weight="700">0.2633</text>
<circle cx="54" cy="194" r="15" fill="#f59e0b"/>
<text x="54" y="199" text-anchor="middle" fill="#0f172a" font-family="system-ui" font-size="13" font-weight="700">2</text>
<text x="92" y="199" fill="#e2e8f0" font-family="system-ui" font-size="16" font-weight="700">Speedy-Splat</text>
<rect x="270" y="180" width="620" height="28" rx="8" fill="#1e293b"/>
<rect x="270" y="180" width="604.06" height="28" rx="8" fill="#f59e0b" opacity=".88"/>
<text x="930" y="199" fill="#f8fafc" font-family="system-ui" font-size="15" font-weight="700">0.2637</text>
<circle cx="54" cy="256" r="15" fill="#8b5cf6"/>
<text x="54" y="261" text-anchor="middle" fill="#0f172a" font-family="system-ui" font-size="13" font-weight="700">3</text>
<text x="92" y="261" fill="#e2e8f0" font-family="system-ui" font-size="16" font-weight="700">Original 3DGS</text>
<rect x="270" y="242" width="620" height="28" rx="8" fill="#1e293b"/>
<rect x="270" y="242" width="603.98" height="28" rx="8" fill="#8b5cf6" opacity=".88"/>
<text x="930" y="261" fill="#f8fafc" font-family="system-ui" font-size="15" font-weight="700">0.2637</text>
<circle cx="54" cy="318" r="15" fill="#22c55e"/>
<text x="54" y="323" text-anchor="middle" fill="#0f172a" font-family="system-ui" font-size="13" font-weight="700">4</text>
<text x="92" y="323" fill="#e2e8f0" font-family="system-ui" font-size="16" font-weight="700">gsplat HiGS</text>
<rect x="270" y="304" width="620" height="28" rx="8" fill="#1e293b"/>
<rect x="270" y="304" width="569.28" height="28" rx="8" fill="#22c55e" opacity=".88"/>
<text x="930" y="323" fill="#f8fafc" font-family="system-ui" font-size="15" font-weight="700">0.2647</text>
<circle cx="54" cy="380" r="15" fill="#22c55e"/>
<text x="54" y="385" text-anchor="middle" fill="#0f172a" font-family="system-ui" font-size="13" font-weight="700">5</text>
<text x="92" y="385" fill="#e2e8f0" font-family="system-ui" font-size="16" font-weight="700">gsplat HiGS</text>
<rect x="270" y="366" width="620" height="28" rx="8" fill="#1e293b"/>
<rect x="270" y="366" width="563.59" height="28" rx="8" fill="#22c55e" opacity=".88"/>
<text x="930" y="385" fill="#f8fafc" font-family="system-ui" font-size="15" font-weight="700">0.2649</text>
<circle cx="54" cy="442" r="15" fill="#22c55e"/>
<text x="54" y="447" text-anchor="middle" fill="#0f172a" font-family="system-ui" font-size="13" font-weight="700">6</text>
<text x="92" y="447" fill="#e2e8f0" font-family="system-ui" font-size="16" font-weight="700">gsplat HiGS</text>
<rect x="270" y="428" width="620" height="28" rx="8" fill="#1e293b"/>
<rect x="270" y="428" width="554.60" height="28" rx="8" fill="#22c55e" opacity=".88"/>
<text x="930" y="447" fill="#f8fafc" font-family="system-ui" font-size="15" font-weight="700">0.2652</text>
<circle cx="54" cy="504" r="15" fill="#3b82f6"/>
<text x="54" y="509" text-anchor="middle" fill="#0f172a" font-family="system-ui" font-size="13" font-weight="700">7</text>
<text x="92" y="509" fill="#e2e8f0" font-family="system-ui" font-size="16" font-weight="700">gsplat</text>
<rect x="270" y="490" width="620" height="28" rx="8" fill="#1e293b"/>
<rect x="270" y="490" width="549.94" height="28" rx="8" fill="#3b82f6" opacity=".88"/>
<text x="930" y="509" fill="#f8fafc" font-family="system-ui" font-size="15" font-weight="700">0.2653</text>
<circle cx="54" cy="566" r="15" fill="#3b82f6"/>
<text x="54" y="571" text-anchor="middle" fill="#0f172a" font-family="system-ui" font-size="13" font-weight="700">8</text>
<text x="92" y="571" fill="#e2e8f0" font-family="system-ui" font-size="16" font-weight="700">gsplat</text>
<rect x="270" y="552" width="620" height="28" rx="8" fill="#1e293b"/>
<rect x="270" y="552" width="549.94" height="28" rx="8" fill="#3b82f6" opacity=".88"/>
<text x="930" y="571" fill="#f8fafc" font-family="system-ui" font-size="15" font-weight="700">0.2653</text>
<circle cx="54" cy="628" r="15" fill="#22c55e"/>
<text x="54" y="633" text-anchor="middle" fill="#0f172a" font-family="system-ui" font-size="13" font-weight="700">9</text>
<text x="92" y="633" fill="#e2e8f0" font-family="system-ui" font-size="16" font-weight="700">gsplat HiGS</text>
<rect x="270" y="614" width="620" height="28" rx="8" fill="#1e293b"/>
<rect x="270" y="614" width="548.93" height="28" rx="8" fill="#22c55e" opacity=".88"/>
<text x="930" y="633" fill="#f8fafc" font-family="system-ui" font-size="15" font-weight="700">0.2653</text>
<circle cx="54" cy="690" r="15" fill="#22c55e"/>
<text x="54" y="695" text-anchor="middle" fill="#0f172a" font-family="system-ui" font-size="13" font-weight="700">10</text>
<text x="92" y="695" fill="#e2e8f0" font-family="system-ui" font-size="16" font-weight="700">gsplat HiGS</text>
<rect x="270" y="676" width="620" height="28" rx="8" fill="#1e293b"/>
<rect x="270" y="676" width="548.93" height="28" rx="8" fill="#22c55e" opacity=".88"/>
<text x="930" y="695" fill="#f8fafc" font-family="system-ui" font-size="15" font-weight="700">0.2653</text>
<circle cx="54" cy="752" r="15" fill="#22c55e"/>
<text x="54" y="757" text-anchor="middle" fill="#0f172a" font-family="system-ui" font-size="13" font-weight="700">11</text>
<text x="92" y="757" fill="#e2e8f0" font-family="system-ui" font-size="16" font-weight="700">gsplat HiGS</text>
<rect x="270" y="738" width="620" height="28" rx="8" fill="#1e293b"/>
<rect x="270" y="738" width="118.02" height="28" rx="8" fill="#22c55e" opacity=".88"/>
<text x="930" y="757" fill="#f8fafc" font-family="system-ui" font-size="15" font-weight="700">0.2778</text>
<circle cx="54" cy="814" r="15" fill="#22c55e"/>
<text x="54" y="819" text-anchor="middle" fill="#0f172a" font-family="system-ui" font-size="13" font-weight="700">12</text>
<text x="92" y="819" fill="#e2e8f0" font-family="system-ui" font-size="16" font-weight="700">gsplat HiGS</text>
<rect x="270" y="800" width="620" height="28" rx="8" fill="#1e293b"/>
<rect x="270" y="800" width="111.60" height="28" rx="8" fill="#22c55e" opacity=".88"/>
<text x="930" y="819" fill="#f8fafc" font-family="system-ui" font-size="15" font-weight="700">0.2780</text>
<text x="40" y="462" fill="#94a3b8" font-family="system-ui" font-size="12">Bar lengths are normalized within this cohort; use the exact values for numeric comparison.</text>
<text x="40" y="484" fill="#64748b" font-family="system-ui" font-size="11">Source: generated ranking.json · overall rows only · renderer colors remain consistent across charts</text>
</svg>
