<svg xmlns="http://www.w3.org/2000/svg" width="1100" height="620" viewBox="0 0 1100 620">
<rect width="100%" height="100%" fill="#0f172a"/>
<text x="550.0" y="32" text-anchor="middle" fill="#f8fafc" font-family="system-ui" font-size="22" font-weight="700">Speed-quality Pareto: FPS vs LPIPS</text>
<text x="550.0" y="58" text-anchor="middle" fill="#94a3b8" font-family="system-ui" font-size="13">Aggregate of 0 required cases · same Tier A cohort · labels report exact aggregate values</text>
<line x1="90" y1="535" x2="750" y2="535" stroke="#94a3b8"/>
<line x1="90" y1="90" x2="90" y2="535" stroke="#94a3b8"/>
<text x="420.0" y="586" text-anchor="middle" fill="#cbd5e1" font-family="system-ui">FPS (higher is better →)</text>
<text transform="translate(24 312.5) rotate(-90)" text-anchor="middle" fill="#cbd5e1" font-family="system-ui">LPIPS (lower is better)</text>
<text x="792" y="98" fill="#f8fafc" font-family="system-ui" font-size="15" font-weight="700">Chart data</text>
<line x1="90.00" y1="90" x2="90.00" y2="535" stroke="#1e293b"/>
<text x="90.00" y="559" text-anchor="middle" fill="#94a3b8" font-family="system-ui" font-size="12">0</text>
<line x1="90" y1="535.00" x2="750" y2="535.00" stroke="#1e293b"/>
<text x="80" y="539.00" text-anchor="end" fill="#94a3b8" font-family="system-ui" font-size="12">0.0000</text>
<line x1="255.00" y1="90" x2="255.00" y2="535" stroke="#1e293b"/>
<text x="255.00" y="559" text-anchor="middle" fill="#94a3b8" font-family="system-ui" font-size="12">0</text>
<line x1="90" y1="423.75" x2="750" y2="423.75" stroke="#1e293b"/>
<text x="80" y="427.75" text-anchor="end" fill="#94a3b8" font-family="system-ui" font-size="12">0.2500</text>
<line x1="420.00" y1="90" x2="420.00" y2="535" stroke="#1e293b"/>
<text x="420.00" y="559" text-anchor="middle" fill="#94a3b8" font-family="system-ui" font-size="12">0</text>
<line x1="90" y1="312.50" x2="750" y2="312.50" stroke="#1e293b"/>
<text x="80" y="316.50" text-anchor="end" fill="#94a3b8" font-family="system-ui" font-size="12">0.5000</text>
<line x1="585.00" y1="90" x2="585.00" y2="535" stroke="#1e293b"/>
<text x="585.00" y="559" text-anchor="middle" fill="#94a3b8" font-family="system-ui" font-size="12">1</text>
<line x1="90" y1="201.25" x2="750" y2="201.25" stroke="#1e293b"/>
<text x="80" y="205.25" text-anchor="end" fill="#94a3b8" font-family="system-ui" font-size="12">0.7500</text>
<line x1="750.00" y1="90" x2="750.00" y2="535" stroke="#1e293b"/>
<text x="750.00" y="559" text-anchor="middle" fill="#94a3b8" font-family="system-ui" font-size="12">1</text>
<line x1="90" y1="90.00" x2="750" y2="90.00" stroke="#1e293b"/>
<text x="80" y="94.00" text-anchor="end" fill="#94a3b8" font-family="system-ui" font-size="12">1.0000</text>
<text x="420.0" y="312.5" text-anchor="middle" fill="#94a3b8" font-family="system-ui" font-size="18">No complete, comparable results in this evidence tier</text>
<text x="90" y="610" fill="#64748b" font-family="system-ui" font-size="11">Source: generated ranking.json · overall rows only · green = 2D Pareto frontier</text>
</svg>
